<svg xmlns="http://www.w3.org/2000/svg" width="400" height="319.621" viewBox="0 0 400 319.621"><defs><style>.a{fill:#ffb8b8;}.b{fill:#2f2e41;}.c{fill:#ea9c42;}.d{fill:#3f3d56;}</style></defs><g transform="translate(5.698 -299.527)"><g transform="translate(-19.673 96)"><path class="a" d="M497.139,708.981H486.818l-4.91-39.81h15.232Z" transform="translate(-182.853 -196.815)"/><path class="b" d="M476.629,712.956h19.9v12.533H464.1A12.533,12.533,0,0,1,476.629,712.956Z" transform="translate(-180.036 -203.739)"/><path class="a" d="M543.139,708.981H532.818l-4.91-39.81h15.233Z" transform="translate(-190.128 -196.815)"/><path class="b" d="M522.629,712.956h19.9v12.533H510.1a12.532,12.532,0,0,1,12.532-12.533Z" transform="translate(-187.311 -203.739)"/><path class="a" d="M773.9,640.4a9.044,9.044,0,0,1-1.736-13.758l-6.8-96.441,19.576,1.9.538,94.445A9.093,9.093,0,0,1,773.9,640.4Z" transform="translate(-422.149 -246.795)"/><path class="b" d="M727.46,754.993l-11.362-.542a3.788,3.788,0,0,1-3.608-3.757L711.7,635.733a3.789,3.789,0,0,1,4.333-3.776l45.455,6.6a3.766,3.766,0,0,1,3.244,3.721L770.574,748.8a3.789,3.789,0,0,1-3.788,3.817H754.537a3.77,3.77,0,0,1-3.742-3.2l-7.557-48.042a2.946,2.946,0,0,0-5.836.108l-6,50.177A3.8,3.8,0,0,1,727.64,755Q727.55,755,727.46,754.993Z" transform="translate(-413.662 -262.882)"/><path class="c" d="M735.224,622.273c-10.018-5.566-17.845-7.028-21.619-7.4a3.72,3.72,0,0,1-2.571-1.408,3.77,3.77,0,0,1-.784-2.863l10.891-80.861a27.966,27.966,0,0,1,16.3-21.852,27.2,27.2,0,0,1,26.431,2.072q.56.372,1.1.76a27.931,27.931,0,0,1,10.638,29.106c-6.679,27.323-8.973,72.115-9.365,80.817a3.759,3.759,0,0,1-2.457,3.372,37.952,37.952,0,0,1-12.818,2.282A32.1,32.1,0,0,1,735.224,622.273Z" transform="translate(-413.427 -242.873)"/><path class="c" d="M770.065,561.2a3.773,3.773,0,0,1-1.565-2.863l-1.434-25.993a10.438,10.438,0,0,1,20.5-3.306l6.3,23.239a3.793,3.793,0,0,1-2.665,4.648l-17.924,4.859A3.774,3.774,0,0,1,770.065,561.2Z" transform="translate(-422.415 -245.393)"/><circle class="a" cx="20.677" cy="20.677" r="20.677" transform="translate(310.23 212.677)"/><path class="a" d="M658.464,517.721a8.865,8.865,0,0,1,.2,1.381l36.164,20.863,8.79-5.06,9.371,12.268-18.8,13.4-41.258-32.548a8.836,8.836,0,1,1,5.536-10.305Z" transform="translate(-402.485 -243.744)"/><path class="c" d="M706.467,538.706a3.774,3.774,0,0,1,1.089-3.076l18.406-18.41A10.438,10.438,0,0,1,742.1,530.283l-13.108,20.2a3.793,3.793,0,0,1-5.24,1.115l-15.578-10.109A3.774,3.774,0,0,1,706.467,538.706Z" transform="translate(-412.831 -244.26)"/><path class="b" d="M760.9,481.5c-3.857,4.109-11.021,1.9-11.524-3.71a6.775,6.775,0,0,1,.009-1.31c.26-2.486,1.7-4.744,1.352-7.369a3.864,3.864,0,0,0-.707-1.809c-3.074-4.116-10.289,1.841-13.19-1.885-1.779-2.285.312-5.882-1.053-8.436-1.8-3.37-7.138-1.708-10.484-3.554-3.723-2.054-3.5-7.766-1.05-11.241,2.989-4.237,8.23-6.5,13.405-6.825s10.315,1.073,15.147,2.956c5.49,2.139,10.934,5.1,14.312,9.923,4.108,5.87,4.5,13.763,2.449,20.627C768.317,473.047,764.051,478.148,760.9,481.5Z" transform="translate(-415.363 -231.791)"/></g><path class="d" d="M1044.017,787.089H646.106a1.044,1.044,0,1,1,0-2.089h397.911a1.044,1.044,0,0,1,0,2.089Z" transform="translate(-650.759 -167.941)"/></g></svg>