<svg xmlns="http://www.w3.org/2000/svg" width="400" height="373.895" viewBox="0 0 400 373.895"><defs><style>.a{fill:#3f3d56;}.b{fill:#9f616a;}.c{fill:#2f2e41;}.d{fill:#ea9c42;}.e{fill:#e6e6e6;}</style></defs><g transform="translate(5.698 -245.252)"><path class="a" d="M1044.017,787.089H646.106a1.044,1.044,0,1,1,0-2.089h397.911a1.044,1.044,0,0,1,0,2.089Z" transform="translate(-650.759 -167.941)"/><g transform="translate(12.498 142.576)"><path class="b" d="M391.113,523.582h0a8.757,8.757,0,0,0,6.05-4.046,9.09,9.09,0,0,0,1.005-7.307L391.525,489.2l-10.095,1.93L381,514.583a9.018,9.018,0,0,0,3,6.9A8.648,8.648,0,0,0,391.113,523.582Z" transform="translate(-33.474 -225.99)"/><path class="c" d="M195.854,595.158l12.619-1.93-3.155-125.463,17.666,54.046,9.464,75.921,11.988-3.217,2.524-79.138-13.88-93.293-69.4,16.085Z" transform="translate(103.521 -150.514)"/><path class="c" d="M470.481,800.191h0a9.2,9.2,0,0,0,6.871-3.106,9.578,9.578,0,0,0,2.358-7.278l-1.959-20.315a2.984,2.984,0,0,0-1.521-2.33c-3.72-2.046-7.545-1.55-11.46,1.12a2.973,2.973,0,0,0-1.263,2.113l-2.236,19.223a9.581,9.581,0,0,0,2.276,7.4,9.2,9.2,0,0,0,6.934,3.176Z" transform="translate(-165.313 -324.664)"/><path class="c" d="M410.394,797.282h0a8.447,8.447,0,0,0,5.071-5.37,8.662,8.662,0,0,0-1.015-7.383l-13.46-20.4c-4.852-3.551-7.779-1.821-8.916,4.814l-2.721-6.953-2.05,2.281a6.752,6.752,0,0,0-.345,8.572l13.962,21.668A8.256,8.256,0,0,0,410.394,797.282Z" transform="translate(-53.72 -323.267)"/><ellipse class="b" cx="18.928" cy="19.302" rx="18.928" ry="19.302" transform="translate(252.686 112.005)"/><path class="b" d="M497.089,323.5l32.177-6.434c-4.145-9.015-7.464-12.065-3.786-21.876H499.612C501.894,305.357,499.689,314.9,497.089,323.5Z" transform="translate(-237.462 -156.81)"/><path class="d" d="M446,461.317l75.711-21.876c-15.165-34.037-18.341-71.407-13.845-110.91a7.246,7.246,0,0,0-1.544-5.365,6.968,6.968,0,0,0-4.859-2.59c-9.876-.829-20.172-1.894-30.856-3.381l-11.988,8.364-13.88-3.217c-4.454,2.2-8.94,4.032-12.989,5.858a16.671,16.671,0,0,0-8.829,20.367C435.258,386.559,443.516,424.192,446,461.317Z" transform="translate(-182.589 -164.656)"/><path class="d" d="M424.367,434.325l14.511-1.93L404.5,331.383c-1.749-5.138-6.085-7.919-11.365-8.688l-5.047.643,3.786,59.836Z" transform="translate(-78.303 -166.617)"/><path class="d" d="M561.308,420.186h0a11.482,11.482,0,0,0,11.5-7.2l13.839-33.974L575.294,337.2l-3,1.948q-.434.282-.856.577A27.781,27.781,0,0,0,560.344,367.1l2.962,17.711-12.218,26.751A11.561,11.561,0,0,0,561.308,420.186Z" transform="translate(-328.917 -171.787)"/><path class="c" d="M517.1,239.719h0a19.814,19.814,0,0,0-9.183,2.757c-.644.382-.346,1.759-.941,2.209-.749.566-2.376.222-3.039.885a20.773,20.773,0,0,0-5.99,16.55l1.056,10.709,2.492-2.779a25.787,25.787,0,0,1,17.32-8.671q.424-.029.849-.046l-1.917-3.421,3.331,3.4a31.83,31.83,0,0,1,4.539.377l-2.549-4.549,4.891,4.988h0a13.137,13.137,0,0,1,9.138,7.6l.543,1.228.608-10.216a20.8,20.8,0,0,0-6.1-15.2,19.976,19.976,0,0,0-15.054-5.821Z" transform="translate(-246.944 -137.019)"/><ellipse class="b" cx="1.52" cy="3.682" rx="1.52" ry="3.682" transform="translate(251.042 131.357)"/><ellipse class="b" cx="1.52" cy="3.682" rx="1.52" ry="3.682" transform="translate(289.049 130.194)"/><path class="b" d="M603.388,364.5h0a8.8,8.8,0,0,0-5.692,4.556,9.1,9.1,0,0,0-.394,7.367l8.537,22.376,9.9-2.8-1.52-23.41a8.985,8.985,0,0,0-3.565-6.619A8.63,8.63,0,0,0,603.388,364.5Z" transform="translate(-386.785 -181.433)"/><path class="d" d="M346.557,363.044l15.773-10.294-13.249-27.666-16.4,6.434,8.2,24.449Z" transform="translate(-118.478 -115.924)"/></g><path class="e" d="M314.359,733.19c12.407,30.151-1.706,91.769-1.706,91.769s-53.005-32.9-65.412-63.048-7.44-61.023,11.094-68.954S301.952,703.039,314.359,733.19Z" transform="translate(-49.232 -206.856)"/></g></svg>