<svg xmlns="http://www.w3.org/2000/svg" width="400" height="382.624" viewBox="0 0 400 382.624"><defs><style>.a{fill:#ffb8b8;}.b{fill:#2f2e41;}.c{fill:#ea9c42;}.d{fill:#3f3d56;}</style></defs><g transform="translate(1.298 -244.395)"><g transform="translate(112.702 244.395)"><path class="a" d="M652.21,659.151H640.538l-5.552-45.022h17.227Z" transform="translate(-480.877 -289.755)"/><path class="b" d="M631.347,657.914h22.511v14.174H617.173a14.173,14.173,0,0,1,14.173-14.174Z" transform="translate(-480.023 -291.049)"/><path class="a" d="M713.21,659.152H701.538l-5.553-45.023h17.227Z" transform="translate(-483.799 -289.755)"/><path class="b" d="M692.347,657.914h22.511v14.174H678.173A14.174,14.174,0,0,1,692.347,657.914Z" transform="translate(-482.946 -291.049)"/><path class="a" d="M763.426,599.041a10.228,10.228,0,0,1,4.294-15.084L807.4,474.594l19.525,10.655L781.619,589.76a10.283,10.283,0,0,1-18.193,9.281Z" transform="translate(-650.647 -395.291)"/><path class="a" d="M879,620.289a10.228,10.228,0,0,1-2.755-15.44L863.95,489.161l22.22,1.015,5.108,113.795A10.283,10.283,0,0,1,879,620.289Z" transform="translate(-655.548 -395.722)"/><circle class="a" cx="23.384" cy="23.384" r="23.384" transform="translate(164.618 10.985)"/><path class="c" d="M876.049,592.695h-70.5l.085-.549c.127-.82,12.565-82.3,3.391-108.953a11.247,11.247,0,0,1,5.778-13.885h0c13.112-6.174,38.281-13.778,59.525,4.674a26.882,26.882,0,0,1,9.006,22.275Z" transform="translate(-652.75 -394.93)"/><path class="c" d="M818.175,522.283l-31.74-6.439,14.878-35.256a13.326,13.326,0,1,1,25.807,6.662Z" transform="translate(-651.834 -395.173)"/><path class="c" d="M862.359,534.363l-1.908-43.74c-1.447-8.222,3.26-16,10.5-17.266s14.312,4.437,15.765,12.72l7.172,40.871Z" transform="translate(-655.368 -395.25)"/><path class="b" d="M873.513,593.752c11.344,43.2,12.581,98.131,9.521,158.047L867.8,749.9,840.19,635.644,824.956,751.8l-17.138-.952c-5.12-62.866-10.1-116.836-1.9-152.334Z" transform="translate(-651.79 -401.118)"/><path class="b" d="M856.518,445.109c-4.362,4.647-12.464,2.152-13.032-4.2a7.65,7.65,0,0,1,.01-1.481c.293-2.812,1.918-5.365,1.529-8.334a4.367,4.367,0,0,0-.8-2.046c-3.476-4.655-11.636,2.082-14.917-2.132-2.012-2.584.353-6.652-1.191-9.54-2.038-3.812-8.073-1.931-11.857-4.019-4.211-2.323-3.959-8.783-1.187-12.713,3.38-4.792,9.307-7.35,15.16-7.718s11.666,1.214,17.13,3.343c6.209,2.42,12.365,5.763,16.186,11.223,4.647,6.639,5.094,15.565,2.77,23.328C864.905,435.546,860.081,441.315,856.518,445.109Z" transform="translate(-653.108 -392.876)"/><path class="d" d="M1044.017,787.089H646.106a1.044,1.044,0,1,1,0-2.089h397.911a1.044,1.044,0,0,1,0,2.089Z" transform="translate(-759.061 -404.465)"/></g></g></svg>