<svg xmlns="http://www.w3.org/2000/svg" xmlns:xlink="http://www.w3.org/1999/xlink" width="216.403" height="302.234" viewBox="0 0 216.403 302.234"><defs><style>.a{fill:#31393c;}.b{fill:#ecf1f4;}.c{fill:#fff;}.d{fill:#566bde;}.e{fill:#3f3d56;}.f{fill:#e6e6e6;}.g{filter:url(#a);}</style><filter id="a" x="19.42" y="0" width="173.264" height="302.234" filterUnits="userSpaceOnUse"><feOffset dx="2" dy="2" input="SourceAlpha"/><feGaussianBlur stdDeviation="7.5" result="b"/><feFlood flood-color="#77868c"/><feComposite operator="in" in2="b"/><feComposite in="SourceGraphic"/></filter></defs><g transform="translate(-14.819 -17.386)"><g class="g" transform="matrix(1, 0, 0, 1, 14.82, 17.39)"><path class="a" d="M400.207,174.128h-1.413V135.409A22.409,22.409,0,0,0,376.384,113H294.353a22.409,22.409,0,0,0-22.41,22.409V347.824a22.409,22.409,0,0,0,22.409,22.409h82.031a22.41,22.41,0,0,0,22.41-22.409V201.689h1.413Z" transform="translate(-232.02 -92.5)"/></g><path class="b" d="M386.173,128.933H375.465a7.951,7.951,0,0,1-7.361,10.954H321.109a7.951,7.951,0,0,1-7.361-10.954h-10a16.735,16.735,0,0,0-16.735,16.735v212.1a16.735,16.735,0,0,0,16.735,16.735h82.426a16.735,16.735,0,0,0,16.735-16.735v-212.1a16.735,16.735,0,0,0-16.735-16.735Zm-1.8,98.4a4.347,4.347,0,0,1-4.335,4.335H359.088a4.347,4.347,0,0,1-4.335-4.335v-1.084a4.347,4.347,0,0,1,4.335-4.335h20.951a4.347,4.347,0,0,1,4.335,4.335Zm2.348-19.145a4.347,4.347,0,0,1-4.335,4.335H307.251a4.347,4.347,0,0,1-4.335-4.335V207.1a4.347,4.347,0,0,1,4.335-4.335h75.135a4.348,4.348,0,0,1,4.335,4.335Zm0-19.145a4.347,4.347,0,0,1-4.335,4.335H307.251a4.347,4.347,0,0,1-4.335-4.335v-1.084a4.347,4.347,0,0,1,4.335-4.335h75.135a4.348,4.348,0,0,1,4.335,4.335Zm0-19.145a4.347,4.347,0,0,1-4.335,4.335H307.251a4.347,4.347,0,0,1-4.335-4.335V168.81a4.348,4.348,0,0,1,4.335-4.335h75.135a4.348,4.348,0,0,1,4.335,4.335Z" transform="translate(-226.258 -84.687)"/><circle class="c" cx="2.529" cy="2.529" r="2.529" transform="translate(80.091 120.607)"/><circle class="c" cx="2.529" cy="2.529" r="2.529" transform="translate(88.399 120.607)"/><circle class="c" cx="2.529" cy="2.529" r="2.529" transform="translate(96.707 120.607)"/><circle class="c" cx="2.529" cy="2.529" r="2.529" transform="translate(105.016 120.607)"/><circle class="c" cx="2.529" cy="2.529" r="2.529" transform="translate(132.108 139.752)"/><circle class="c" cx="2.529" cy="2.529" r="2.529" transform="translate(140.416 139.752)"/><circle class="c" cx="2.529" cy="2.529" r="2.529" transform="translate(148.724 139.752)"/><path class="d" d="M397.856,456.6h-85.69a7.591,7.591,0,0,0-7.591,7.591v41.75a7.591,7.591,0,0,0,7.591,7.591h85.69a7.591,7.591,0,0,0,7.591-7.591v-41.75a7.591,7.591,0,0,0-7.591-7.591Zm-87.81,5.178a10.475,10.475,0,0,1,12.156,7.313l.134.417-.431.077a11.446,11.446,0,0,1-1.859.137A11.071,11.071,0,0,1,314.4,468.3a11.99,11.99,0,0,1-4.651-6.027l-.134-.417Zm18.6,38.762H313.363a4.2,4.2,0,1,1,0-8.406h15.284a4.2,4.2,0,1,1,0,8.406Zm69.54-.764a4.6,4.6,0,0,1-4.585,4.585H382.139a4.6,4.6,0,0,1-4.585-4.585V492.9a4.6,4.6,0,0,1,4.585-4.585H393.6a4.6,4.6,0,0,1,4.585,4.585Z" transform="translate(-236.81 -281.558)"/><path class="e" d="M499.339,561.213H494.73a1.241,1.241,0,1,0,0,2.482h4.609a1.241,1.241,0,0,0,0-2.482Z" transform="translate(-350.314 -344.411)"/><path class="e" d="M520.654,561.213h-4.609a1.241,1.241,0,1,0,0,2.482h4.609a1.241,1.241,0,0,0,0-2.482Z" transform="translate(-363.121 -344.411)"/><path class="e" d="M499.337,552.438h-4.609a1.241,1.241,0,0,0,0,2.482h4.609a1.241,1.241,0,1,0,0-2.482Z" transform="translate(-350.313 -339.139)"/><path class="e" d="M520.652,552.438h-4.609a1.241,1.241,0,0,0,0,2.482h4.609a1.241,1.241,0,0,0,0-2.482Z" transform="translate(-363.12 -339.139)"/><path class="e" d="M499.337,543.841h-4.609a1.241,1.241,0,0,0,0,2.482h4.609a1.241,1.241,0,1,0,0-2.482Z" transform="translate(-350.313 -333.974)"/><path class="e" d="M520.652,543.841h-4.609a1.241,1.241,0,0,0,0,2.482h4.609a1.241,1.241,0,0,0,0-2.482Z" transform="translate(-363.12 -333.974)"/><rect class="f" width="11.177" height="11.177" transform="translate(14.819 98.561)"/><path class="d" d="M205.3,248.362H186.939V230H205.3Zm-17.564-.8H204.5V230.8H187.737Z" transform="translate(-166.132 -145.411)"/><path class="d" d="M625.939,513H644.3v18.362H625.939Zm17.564.8H626.737v16.765H643.5Z" transform="translate(-413.079 -299.897)"/></g></svg>