<svg xmlns="http://www.w3.org/2000/svg" xmlns:xlink="http://www.w3.org/1999/xlink" width="251.559" height="443.174" viewBox="0 0 251.559 443.174"><defs><style>.a{fill:#31393c;}.b{fill:#ecf1f4;}.c{fill:#fff;}.d{fill:#566bde;}.e{fill:#ccc;}.f{fill:#9f616a;}.g{fill:#77868c;}.h{fill:#2f2e41;}.i{fill:#f44336;}.j{fill:none;stroke:#fff;stroke-miterlimit:10;}.k{fill:#f15b6c;}.l{fill:#65d46e;}.m{fill:#212121;}.n{fill:red;}.o{fill:#33d375;}.p{fill:#40c4ff;}.q{fill:#e91e63;}.r{fill:#ffc107;}.s{fill:#b71c1c;}.t{fill:#e53935;}.u{filter:url(#o);}.v{filter:url(#m);}.w{filter:url(#k);}.x{filter:url(#i);}.y{filter:url(#g);}.z{filter:url(#e);}.aa{filter:url(#c);}.ab{filter:url(#a);}</style><filter id="a" x="10.929" y="0" width="240.63" height="437.337" filterUnits="userSpaceOnUse"><feOffset dx="2" dy="2" input="SourceAlpha"/><feGaussianBlur stdDeviation="7.5" result="b"/><feFlood flood-color="#77868c"/><feComposite operator="in" in2="b"/><feComposite in="SourceGraphic"/></filter><filter id="c" x="104.592" y="80.791" width="49.506" height="49.506" filterUnits="userSpaceOnUse"><feOffset dy="3" input="SourceAlpha"/><feGaussianBlur stdDeviation="3" result="d"/><feFlood flood-opacity="0.161"/><feComposite operator="in" in2="d"/><feComposite in="SourceGraphic"/></filter><filter id="e" x="148.765" y="80.796" width="49.501" height="49.501" filterUnits="userSpaceOnUse"><feOffset dy="3" input="SourceAlpha"/><feGaussianBlur stdDeviation="3" result="f"/><feFlood flood-opacity="0.161"/><feComposite operator="in" in2="f"/><feComposite in="SourceGraphic"/></filter><filter id="g" x="104.592" y="130.123" width="49.506" height="49.506" filterUnits="userSpaceOnUse"><feOffset dy="3" input="SourceAlpha"/><feGaussianBlur stdDeviation="3" result="h"/><feFlood flood-opacity="0.161"/><feComposite operator="in" in2="h"/><feComposite in="SourceGraphic"/></filter><filter id="i" x="148.961" y="130.123" width="49.305" height="49.305" filterUnits="userSpaceOnUse"><feOffset dy="3" input="SourceAlpha"/><feGaussianBlur stdDeviation="3" result="j"/><feFlood flood-opacity="0.161"/><feComposite operator="in" in2="j"/><feComposite in="SourceGraphic"/></filter><filter id="k" x="60.223" y="179.445" width="49.506" height="49.506" filterUnits="userSpaceOnUse"><feOffset dy="3" input="SourceAlpha"/><feGaussianBlur stdDeviation="3" result="l"/><feFlood flood-opacity="0.161"/><feComposite operator="in" in2="l"/><feComposite in="SourceGraphic"/></filter><filter id="m" x="60.223" y="130.123" width="49.506" height="49.506" filterUnits="userSpaceOnUse"><feOffset dy="3" input="SourceAlpha"/><feGaussianBlur stdDeviation="3" result="n"/><feFlood flood-opacity="0.161"/><feComposite operator="in" in2="n"/><feComposite in="SourceGraphic"/></filter><filter id="o" x="60.013" y="80.291" width="49.506" height="49.506" filterUnits="userSpaceOnUse"><feOffset dy="3" input="SourceAlpha"/><feGaussianBlur stdDeviation="3" result="p"/><feFlood flood-opacity="0.161"/><feComposite operator="in" in2="p"/><feComposite in="SourceGraphic"/></filter></defs><g transform="translate(-75.197 20.5)"><g class="ab" transform="matrix(1, 0, 0, 1, 75.2, -20.5)"><path class="a" d="M614.185,178.711h-2.156V119.656A34.179,34.179,0,0,0,577.85,85.477H452.735a34.179,34.179,0,0,0-34.179,34.179V443.635a34.179,34.179,0,0,0,34.179,34.179H577.85a34.179,34.179,0,0,0,34.179-34.179V220.747h2.156Z" transform="translate(-387.13 -64.98)"/></g><path class="b" d="M612.818,127.5V451a25.526,25.526,0,0,1-25.525,25.526H461.577A25.526,25.526,0,0,1,436.051,451V127.5a25.526,25.526,0,0,1,25.525-25.526h15.251a12.133,12.133,0,0,0,11.229,16.706h71.677a12.133,12.133,0,0,0,11.229-16.706h16.329A25.526,25.526,0,0,1,612.818,127.5Z" transform="translate(-319.994 -93.079)"/><path class="c" d="M596.433,422.952H577a6.045,6.045,0,0,1-6.038-6.038V397.484A6.045,6.045,0,0,1,577,391.446h19.429a6.045,6.045,0,0,1,6.038,6.038v19.429A6.045,6.045,0,0,1,596.433,422.952Z" transform="translate(-382.177 -226.501)"/><path class="d" d="M678.737,422.952H659.307a6.045,6.045,0,0,1-6.038-6.038V397.484a6.045,6.045,0,0,1,6.038-6.038h19.429a6.045,6.045,0,0,1,6.038,6.038v19.429A6.045,6.045,0,0,1,678.737,422.952Z" transform="translate(-420.112 -226.501)"/><path class="d" d="M514.13,514.46H494.7a6.045,6.045,0,0,1-6.038-6.038v-19.43a6.045,6.045,0,0,1,6.038-6.038h19.43a6.045,6.045,0,0,1,6.038,6.038v19.429a6.045,6.045,0,0,1-6.038,6.038Z" transform="translate(-344.242 -268.679)"/><path class="c" d="M596.433,514.46H577a6.045,6.045,0,0,1-6.038-6.038v-19.43A6.045,6.045,0,0,1,577,482.955h19.429a6.045,6.045,0,0,1,6.038,6.038v19.429a6.045,6.045,0,0,1-6.038,6.038Z" transform="translate(-382.177 -268.679)"/><path class="c" d="M678.737,514.46H659.307a6.045,6.045,0,0,1-6.038-6.038v-19.43a6.045,6.045,0,0,1,6.038-6.038h19.429a6.045,6.045,0,0,1,6.038,6.038v19.429a6.045,6.045,0,0,1-6.038,6.038Z" transform="translate(-420.112 -268.679)"/><path class="d" d="M618.8,502.848H599.7a6.21,6.21,0,0,1-6.2-6.2v-19.1a6.21,6.21,0,0,1,6.2-6.2h19.1a6.209,6.209,0,0,1,6.2,6.2v19.1a6.21,6.21,0,0,1-6.2,6.2Z" transform="translate(-396.27 -235.527)"/><g transform="translate(75.197 217.283)"><g transform="translate(17.693)"><path class="e" d="M472.425,532.086l-11.608-2.1a2.336,2.336,0,0,1-1.8-3.045l3.763-11.141a6.486,6.486,0,0,1,12.759,2.343l-.367,11.716a2.335,2.335,0,0,1-2.749,2.224Z" transform="translate(-427.12 -468.073)"/><path class="f" d="M464.54,580.871a5.575,5.575,0,0,0,1.994-8.313L470.7,531.8h-9.01l-3.313,39.8a5.605,5.605,0,0,0,6.16,9.273Z" transform="translate(-425.971 -477.895)"/><path class="f" d="M12.747,0A12.747,12.747,0,1,1,0,12.747,12.747,12.747,0,0,1,12.747,0Z" transform="translate(34.095 5.913)"/><path class="g" d="M481.291,539.438a2.331,2.331,0,0,1-2.247-1.712c-1.021-3.71-3.678-9.984-7.9-18.647a15.446,15.446,0,0,1,8.771-21.325h0a15.439,15.439,0,0,1,19.839,9.835c3.27,10.252,3.112,21.234,2.892,25.479a2.341,2.341,0,0,1-1.834,2.162l-19.024,4.154a2.326,2.326,0,0,1-.5.054Z" transform="translate(-432.05 -461.798)"/><path class="f" d="M294.465,693.9h6.363l3.027-24.542h-9.391Z" transform="translate(-226.802 -495.219)"/><path class="h" d="M0,0H20V7.726H7.726A7.726,7.726,0,0,1,0,0Z" transform="translate(86.296 204.59) rotate(179.997)"/><path class="f" d="M176.447,681.2l5.576,3.065L196.5,664.219,188.27,659.7Z" transform="translate(-172.406 -490.765)"/><path class="h" d="M0,0H20V7.726H7.726A7.726,7.726,0,0,1,0,0H0Z" transform="translate(17.523 204.589) rotate(-151.199)"/><path class="h" d="M475.783,676.343a2.335,2.335,0,0,1-2.314-2.035l-7.957-61.317a1.3,1.3,0,0,0-2.423-.46L429.927,672.7a2.348,2.348,0,0,1-2.877,1.056L419.822,671a2.335,2.335,0,0,1-1.332-3.063L441.463,611.5a1.8,1.8,0,0,0,.117-.447c3.112-24.083,11.028-36.329,13.38-39.509a1.808,1.808,0,0,0,.257-1.647l-.323-.97a2.334,2.334,0,0,1,.449-2.272c8.476-9.654,23.249-4.386,23.4-4.332l.074.027.046.063c16.565,22.717,10.44,96.5,9.044,111.063a2.329,2.329,0,0,1-2.146,2.1l-9.8.754C475.9,676.341,475.843,676.343,475.783,676.343Z" transform="translate(-408.417 -491.283)"/><path class="f" d="M550.025,490.3a5.449,5.449,0,0,0-.124.851l-22.294,12.861-5.419-3.12-5.777,7.563,9.056,6.455a4.152,4.152,0,0,0,4.981-.121l22.989-18.136a5.448,5.448,0,1,0-3.413-6.353Z" transform="translate(-453.629 -456.829)"/><path class="g" d="M517.5,511.438l-7.205,9.339a2.335,2.335,0,0,1-3.531.193L498.6,512.5a6.486,6.486,0,1,1,7.954-10.247l10.231,5.721a2.335,2.335,0,0,1,.709,3.465Z" transform="translate(-444.265 -463.65)"/><path class="h" d="M451.363,447.538c3.276,2.242,7.578,4.547,10.924,2.159a6.089,6.089,0,0,0,2-7.019c-1.6-4.582-6-6.6-10.214-8.145-5.472-2.01-11.431-3.609-17.08-2.17s-10.642,6.909-9.622,12.649c.82,4.616,5.174,8.457,4.556,13.1-.622,4.677-5.882,7.139-10.526,7.975s-9.84,1.1-13.177,4.44c-4.257,4.255-3.194,11.86.812,16.353s10.051,6.529,15.909,7.913c7.761,1.834,16.155,2.8,23.527-.246s13.107-11.238,10.972-18.922c-.9-3.246-3.027-5.989-5.08-8.659s-4.133-5.463-4.916-8.739a9.085,9.085,0,0,1,1.641-7.948,2.3,2.3,0,0,0,.309-2.692Z" transform="translate(-402.504 -431.81)"/></g><path class="a" d="M358.775,813.6h-127.6c-.1,0-.173-.241-.173-.539s.078-.539.173-.539h127.6c.1,0,.173.241.173.539S358.871,813.6,358.775,813.6Z" transform="translate(-231 -608.211)"/></g><g transform="translate(188.789 66.291)"><g class="aa" transform="matrix(1, 0, 0, 1, -113.59, -86.79)"><path class="c" d="M596.433,239.952H577a6.045,6.045,0,0,1-6.038-6.038v-19.43A6.045,6.045,0,0,1,577,208.446h19.429a6.045,6.045,0,0,1,6.038,6.038v19.429A6.045,6.045,0,0,1,596.433,239.952Z" transform="translate(-457.37 -121.65)"/></g><g transform="translate(1.753 2.28)"><circle class="i" cx="14" cy="14" r="14" transform="translate(0.156 -0.035)"/><path class="c" d="M21,28.266l7.413-4.633L21,19Z" transform="translate(-10.17 -9.734)"/><path class="j" d="M21.413,14A7.413,7.413,0,1,1,14,21.413,7.423,7.423,0,0,1,21.413,14" transform="translate(-7.514 -7.514)"/></g></g><g transform="translate(232.962 66.296)"><g class="z" transform="matrix(1, 0, 0, 1, -157.77, -86.8)"><path class="k" d="M20.011,25.669v20.14a5.681,5.681,0,0,0,5.681,5.681h20.14a5.681,5.681,0,0,0,5.681-5.681V25.669a5.681,5.681,0,0,0-5.681-5.681H25.692A5.68,5.68,0,0,0,20.011,25.669Z" transform="translate(137.75 66.81)"/></g><path class="c" d="M49.5,45.521V30.558a1.032,1.032,0,0,0-1.21-1.017l-9.812,1.889a1.033,1.033,0,0,0-.856,1.017V45c0,1.033-1.42,1.065-1.42,1.065-.112.012-.222.019-.335.043a2.645,2.645,0,0,0-2.345,2.84A2.616,2.616,0,0,0,36.8,50.612a2.812,2.812,0,0,0,2.379-2.767V36.661a.514.514,0,0,1,.427-.509c1.445-.246,6.078-1.164,7.747-1.461a.515.515,0,0,1,.606.509v7.739a1.024,1.024,0,0,1-1.04,1.04,3.514,3.514,0,0,0-.715.068,2.645,2.645,0,0,0-2.345,2.84,2.616,2.616,0,0,0,3.269,1.659A2.953,2.953,0,0,0,49.5,45.521Z" transform="translate(-26.528 -24.6)"/></g><g transform="translate(188.789 115.623)"><g class="y" transform="matrix(1, 0, 0, 1, -113.59, -136.12)"><path d="M596.433,331.46H577a6.045,6.045,0,0,1-6.038-6.038v-19.43A6.045,6.045,0,0,1,577,299.955h19.429a6.045,6.045,0,0,1,6.038,6.038v19.43A6.045,6.045,0,0,1,596.433,331.46Z" transform="translate(-457.37 -163.83)"/></g><circle class="l" cx="13.5" cy="13.5" r="13.5" transform="translate(2.908 1.914)"/><g transform="translate(6.766 8.966)"><path class="m" d="M18.09,18h0a1.022,1.022,0,0,1-.571-.192C14.19,15.8,10.316,15.717,6.49,16.5a3.406,3.406,0,0,1-.635.139.831.831,0,0,1-.844-.844.845.845,0,0,1,.727-.9c4.37-.965,8.836-.88,12.645,1.4a.9.9,0,0,1,.518.88A.807.807,0,0,1,18.09,18Z" transform="translate(-3.572 -5.436)"/><path class="m" d="M19.578,14.9h0a1.322,1.322,0,0,1-.657-.224A17.291,17.291,0,0,0,6.189,13.111a2.192,2.192,0,0,1-.635.139,1.035,1.035,0,0,1-1.034-1.034,1.05,1.05,0,0,1,.827-1.1,17.918,17.918,0,0,1,5.218-.727,18.678,18.678,0,0,1,9.445,2.428,1.113,1.113,0,0,1,.6,1.051A1.034,1.034,0,0,1,19.578,14.9Z" transform="translate(-3.622 -5.84)"/><path class="m" d="M4.634,7.073a22.34,22.34,0,0,1,6.27-.81,22.53,22.53,0,0,1,10.96,2.551,1.252,1.252,0,0,1,.688,1.205,1.236,1.236,0,0,1-1.237,1.243h0a1.228,1.228,0,0,1-.689-.208c-3.8-2.267-10.592-2.811-14.987-1.583a2.568,2.568,0,0,1-.689.138A1.231,1.231,0,0,1,3.706,8.347a1.26,1.26,0,0,1,.928-1.274Z" transform="translate(-3.706 -6.263)"/></g></g><g transform="translate(233.158 115.623)"><g class="x" transform="matrix(1, 0, 0, 1, -157.96, -136.12)"><path class="c" d="M678.575,331.26H659.269a6.006,6.006,0,0,1-6-6V305.954a6.007,6.007,0,0,1,6-6h19.306a6.007,6.007,0,0,1,6,6V325.26A6.007,6.007,0,0,1,678.575,331.26Z" transform="translate(-495.31 -163.83)"/></g><path class="n" d="M25.529,2.856a3.266,3.266,0,0,0-2.3-2.3C21.192,0,13.033,0,13.033,0S4.874,0,2.834.537a3.332,3.332,0,0,0-2.3,2.319A34.411,34.411,0,0,0,0,9.125a34.285,34.285,0,0,0,.537,6.269,3.266,3.266,0,0,0,2.3,2.3c2.061.558,10.2.558,10.2.558s8.159,0,10.2-.537a3.266,3.266,0,0,0,2.3-2.3,34.413,34.413,0,0,0,.537-6.269A32.663,32.663,0,0,0,25.529,2.856Zm0,0" transform="translate(2.62 6.527)"/><path class="c" d="M204.969,110.3l6.785-3.908-6.785-3.908Zm0,0" transform="translate(-191.914 -90.74)"/></g><g transform="translate(144.42 164.945)"><g class="w" transform="matrix(1, 0, 0, 1, -69.22, -185.44)"><path d="M514.13,422.952H494.7a6.045,6.045,0,0,1-6.038-6.038V397.484a6.045,6.045,0,0,1,6.038-6.038h19.43a6.045,6.045,0,0,1,6.038,6.038v19.429A6.045,6.045,0,0,1,514.13,422.952Z" transform="translate(-419.44 -206)"/></g><path class="c" d="M14.12,3a11.113,11.113,0,0,0-2.695,21.9,1.623,1.623,0,0,1-.085-.54v-1.9h-1.4a1.935,1.935,0,0,1-1.765-.935c-.364-.676-.427-1.709-1.33-2.341-.268-.21-.064-.45.245-.418a2.914,2.914,0,0,1,1.487,1.132,1.429,1.429,0,0,0,1.479.713,10.625,10.625,0,0,0,1.567-.112A3.488,3.488,0,0,1,13.1,18.677c-3.7-.381-5.47-2.223-5.47-4.724a4.545,4.545,0,0,1,1.238-3c-.256-.871-.577-2.647.1-3.324a3.871,3.871,0,0,1,2.915,1.372,8.408,8.408,0,0,1,5.408,0A3.868,3.868,0,0,1,20.2,7.633c.678.677.353,2.461.095,3.33a4.543,4.543,0,0,1,1.231,2.989c0,2.5-1.764,4.34-5.462,4.723a3.9,3.9,0,0,1,1.76,3.147v2.533a1.63,1.63,0,0,1-.032.248A11.114,11.114,0,0,0,14.12,3Z" transform="translate(1.633 1.805)"/></g><g transform="translate(144.419 115.623)"><g class="v" transform="matrix(1, 0, 0, 1, -69.22, -136.12)"><path class="c" d="M514.13,239.952H494.7a6.045,6.045,0,0,1-6.038-6.038v-19.43a6.045,6.045,0,0,1,6.038-6.038h19.43a6.045,6.045,0,0,1,6.038,6.038v19.429A6.045,6.045,0,0,1,514.13,239.952Z" transform="translate(-419.44 -72.32)"/></g><g transform="translate(3.638 3.638)"><path class="o" d="M29.97,6.485a2.485,2.485,0,1,0-4.97,0v6.834a2.485,2.485,0,0,0,4.97,0Z" transform="translate(-11.953 -4)"/><path class="o" d="M39.97,17.485a2.485,2.485,0,0,1-2.485,2.485H35V17.485a2.485,2.485,0,0,1,4.97,0Z" transform="translate(-15.74 -8.166)"/><path class="p" d="M6.485,14a2.485,2.485,0,1,0,0,4.97h6.834a2.485,2.485,0,0,0,0-4.97Z" transform="translate(-4 -7.787)"/><path class="p" d="M17.485,4A2.485,2.485,0,0,1,19.97,6.485V8.97H17.485a2.485,2.485,0,1,1,0-4.97Z" transform="translate(-8.166 -4)"/><path class="q" d="M14,33.334a2.485,2.485,0,0,0,4.97,0V26.509a2.485,2.485,0,0,0-4.97,0Z" transform="translate(-7.787 -11.585)"/><path class="q" d="M4,26.509a2.483,2.483,0,0,1,2.485-2.481H8.97v2.481a2.485,2.485,0,0,1-4.97,0Z" transform="translate(-4 -11.585)"/><path class="r" d="M33.319,29.97a2.485,2.485,0,1,0,0-4.97H26.485a2.485,2.485,0,1,0,0,4.97Z" transform="translate(-11.574 -11.953)"/><path class="r" d="M26.485,39.97A2.485,2.485,0,0,1,24,37.485V35h2.485a2.485,2.485,0,0,1,0,4.97Z" transform="translate(-11.574 -15.74)"/></g></g><g transform="translate(144.209 65.791)"><g class="u" transform="matrix(1, 0, 0, 1, -69.01, -86.29)"><path d="M37.506,33.13a4.375,4.375,0,0,1-4.376,4.376H10.376A4.376,4.376,0,0,1,6,33.13V10.376A4.376,4.376,0,0,1,10.376,6H33.13a4.375,4.375,0,0,1,4.376,4.376Z" transform="translate(63.01 80.29)"/></g><path class="s" d="M30.633,12H26V31.961a31.169,31.169,0,0,1,4.633.425C30.646,32.376,30.633,12,30.633,12Z" transform="translate(-8.663 -6.44)"/><path class="s" d="M17,12h4.633V31.961A31.169,31.169,0,0,0,17,32.386C16.987,32.376,17,12,17,12Z" transform="translate(-7.464 -6.44)"/><path class="t" d="M21.633,12H17l8.34,19.961a31.169,31.169,0,0,1,4.633.425C29.986,32.376,21.633,12,21.633,12Z" transform="translate(-7.734 -6.44)"/></g></g></svg>