<svg xmlns="http://www.w3.org/2000/svg" xmlns:xlink="http://www.w3.org/1999/xlink" width="407.534" height="305.32" viewBox="0 0 407.534 305.32"><defs><style>.a{fill:#566bde;}.b{fill:#e6e6e6;}.c{fill:#fff;}.d{fill:#ccc;}.e{fill:#b71c1c;}.f{fill:#e53935;}.g{fill:#65d46e;}.h{fill:#212121;}.i{fill:#ecf1f4;}.j{filter:url(#u);}.k{filter:url(#s);}.l{filter:url(#q);}.m{filter:url(#o);}.n{filter:url(#m);}.o{filter:url(#k);}.p{filter:url(#i);}.q{filter:url(#g);}.r{filter:url(#e);}.s{filter:url(#c);}.t{filter:url(#a);}</style><filter id="a" x="198.742" y="228.538" width="65.954" height="66.368" filterUnits="userSpaceOnUse"><feOffset dx="2" dy="2" input="SourceAlpha"/><feGaussianBlur stdDeviation="7.5" result="b"/><feFlood flood-color="#77868c"/><feComposite operator="in" in2="b"/><feComposite in="SourceGraphic"/></filter><filter id="c" x="142.457" y="24.99" width="65.954" height="66.368" filterUnits="userSpaceOnUse"><feOffset dx="2" dy="2" input="SourceAlpha"/><feGaussianBlur stdDeviation="7.5" result="d"/><feFlood flood-color="#77868c"/><feComposite operator="in" in2="d"/><feComposite in="SourceGraphic"/></filter><filter id="e" x="188.317" y="79.576" width="219.218" height="87.196" filterUnits="userSpaceOnUse"><feOffset dx="2" dy="2" input="SourceAlpha"/><feGaussianBlur stdDeviation="7.5" result="f"/><feFlood flood-color="#77868c"/><feComposite operator="in" in2="f"/><feComposite in="SourceGraphic"/></filter><filter id="g" x="187.936" y="14.576" width="219.218" height="87.196" filterUnits="userSpaceOnUse"><feOffset dx="2" dy="2" input="SourceAlpha"/><feGaussianBlur stdDeviation="7.5" result="h"/><feFlood flood-color="#77868c"/><feComposite operator="in" in2="h"/><feComposite in="SourceGraphic"/></filter><filter id="i" x="0" y="147.35" width="219.218" height="87.196" filterUnits="userSpaceOnUse"><feOffset dx="2" dy="2" input="SourceAlpha"/><feGaussianBlur stdDeviation="7.5" result="j"/><feFlood flood-color="#77868c"/><feComposite operator="in" in2="j"/><feComposite in="SourceGraphic"/></filter><filter id="k" x="0" y="218.124" width="219.218" height="87.196" filterUnits="userSpaceOnUse"><feOffset dx="2" dy="2" input="SourceAlpha"/><feGaussianBlur stdDeviation="7.5" result="l"/><feFlood flood-color="#77868c"/><feComposite operator="in" in2="l"/><feComposite in="SourceGraphic"/></filter><filter id="m" x="11.717" y="10.297" width="149.123" height="167.321" filterUnits="userSpaceOnUse"><feOffset dx="2" dy="2" input="SourceAlpha"/><feGaussianBlur stdDeviation="7.5" result="n"/><feFlood flood-color="#77868c"/><feComposite operator="in" in2="n"/><feComposite in="SourceGraphic"/></filter><filter id="o" x="97.5" y="0" width="70.565" height="71.07" filterUnits="userSpaceOnUse"><feOffset dx="2" dy="2" input="SourceAlpha"/><feGaussianBlur stdDeviation="7.5" result="p"/><feFlood flood-color="#77868c"/><feComposite operator="in" in2="p"/><feComposite in="SourceGraphic"/></filter><filter id="q" x="47.675" y="44.5" width="70.116" height="48.247" filterUnits="userSpaceOnUse"><feOffset dy="3" input="SourceAlpha"/><feGaussianBlur stdDeviation="3" result="r"/><feFlood flood-opacity="0.161"/><feComposite operator="in" in2="r"/><feComposite in="SourceGraphic"/></filter><filter id="s" x="142.838" y="89.99" width="65.954" height="66.368" filterUnits="userSpaceOnUse"><feOffset dx="2" dy="2" input="SourceAlpha"/><feGaussianBlur stdDeviation="7.5" result="t"/><feFlood flood-color="#77868c"/><feComposite operator="in" in2="t"/><feComposite in="SourceGraphic"/></filter><filter id="u" x="198.742" y="157.764" width="65.954" height="66.368" filterUnits="userSpaceOnUse"><feOffset dx="2" dy="2" input="SourceAlpha"/><feGaussianBlur stdDeviation="7.5" result="v"/><feFlood flood-color="#77868c"/><feComposite operator="in" in2="v"/><feComposite in="SourceGraphic"/></filter></defs><g transform="translate(20.5 97.076)"><g class="t" transform="matrix(1, 0, 0, 1, -20.5, -97.08)"><ellipse class="a" cx="10.477" cy="10.684" rx="10.477" ry="10.684" transform="translate(219.24 249.04)"/></g><g class="s" transform="matrix(1, 0, 0, 1, -20.5, -97.08)"><ellipse class="a" cx="10.477" cy="10.684" rx="10.477" ry="10.684" transform="translate(162.96 45.49)"/></g><g class="r" transform="matrix(1, 0, 0, 1, -20.5, -97.08)"><path class="b" d="M686.613,80.112a3.19,3.19,0,0,0-3.155,3.217v35.762a3.19,3.19,0,0,0,3.155,3.217H854.522a3.19,3.19,0,0,0,3.155-3.217V83.329a3.19,3.19,0,0,0-3.155-3.217Z" transform="translate(-474.64 19.96)"/></g><g class="q" transform="matrix(1, 0, 0, 1, -20.5, -97.08)"><path class="b" d="M686.613,80.112a3.19,3.19,0,0,0-3.155,3.217v35.762a3.19,3.19,0,0,0,3.155,3.217H854.522a3.19,3.19,0,0,0,3.155-3.217V83.329a3.19,3.19,0,0,0-3.155-3.217Z" transform="translate(-475.02 -45.04)"/></g><path class="c" d="M689.186,84.011a1.85,1.85,0,0,0-1.829,1.865v33.449a1.85,1.85,0,0,0,1.829,1.865h165.64a1.849,1.849,0,0,0,1.829-1.865V85.876a1.849,1.849,0,0,0-1.829-1.865Z" transform="translate(-496.581 -78.502)"/><path class="c" d="M689.186,84.011a1.85,1.85,0,0,0-1.829,1.865v33.449a1.85,1.85,0,0,0,1.829,1.865h165.64a1.849,1.849,0,0,0,1.829-1.865V85.876a1.849,1.849,0,0,0-1.829-1.865Z" transform="translate(-496.962 -143.502)"/><path class="b" d="M852.613,124.181a3.031,3.031,0,0,0,0-6.061h-140.1a3.031,3.031,0,0,0,0,6.061Z" transform="translate(-504.768 -90.666)"/><path class="b" d="M852.613,124.181a3.031,3.031,0,0,0,0-6.061h-140.1a3.031,3.031,0,0,0,0,6.061Z" transform="translate(-505.149 -155.666)"/><path class="a" d="M772.8,103.717a3.031,3.031,0,0,0,0-6.061H712.511a3.031,3.031,0,0,0,0,6.061Z" transform="translate(-504.768 -83.368)"/><path class="a" d="M772.8,103.717a3.031,3.031,0,0,0,0-6.061H712.511a3.031,3.031,0,0,0,0,6.061Z" transform="translate(-505.149 -148.368)"/><g class="p" transform="matrix(1, 0, 0, 1, -20.5, -97.08)"><path class="b" d="M854.522,190.112a3.19,3.19,0,0,1,3.155,3.217v35.762a3.19,3.19,0,0,1-3.155,3.217H686.613a3.19,3.19,0,0,1-3.155-3.217V193.329a3.19,3.19,0,0,1,3.155-3.217Z" transform="translate(-662.96 -22.26)"/></g><path class="c" d="M854.826,194.011a1.85,1.85,0,0,1,1.829,1.865v33.449a1.85,1.85,0,0,1-1.829,1.865H689.186a1.849,1.849,0,0,1-1.829-1.865V195.876a1.849,1.849,0,0,1,1.829-1.865Z" transform="translate(-684.897 -120.728)"/><path class="b" d="M712.511,234.181a3.031,3.031,0,0,1,0-6.061h140.1a3.031,3.031,0,0,1,0,6.061Z" transform="translate(-697.822 -132.891)"/><path class="a" d="M712.511,213.717a3.031,3.031,0,0,1,0-6.061H772.8a3.031,3.031,0,0,1,0,6.061Z" transform="translate(-618.007 -125.594)"/><g class="o" transform="matrix(1, 0, 0, 1, -20.5, -97.08)"><path class="b" d="M854.522,300.112a3.19,3.19,0,0,1,3.155,3.217v35.762a3.19,3.19,0,0,1-3.155,3.217H686.613a3.19,3.19,0,0,1-3.155-3.217V303.329a3.19,3.19,0,0,1,3.155-3.217Z" transform="translate(-662.96 -61.49)"/></g><path class="c" d="M854.826,304.011a1.85,1.85,0,0,1,1.829,1.865v33.449a1.85,1.85,0,0,1-1.829,1.865H689.186a1.849,1.849,0,0,1-1.829-1.865V305.876a1.849,1.849,0,0,1,1.829-1.865Z" transform="translate(-684.897 -159.954)"/><path class="b" d="M712.511,344.181a3.031,3.031,0,0,1,0-6.061h140.1a3.031,3.031,0,0,1,0,6.061Z" transform="translate(-697.822 -172.117)"/><path class="a" d="M712.511,323.717a3.031,3.031,0,0,1,0-6.061H772.8a3.031,3.031,0,0,1,0,6.061Z" transform="translate(-618.007 -164.82)"/><g transform="translate(11.717 -76.576)"><g class="n" transform="matrix(1, 0, 0, 1, -32.22, -20.5)"><path class="c" d="M630.583,400.489H549.3c-6.3-.006-11.413-4.316-11.42-9.635V287.8c.007-5.319,5.116-9.629,11.42-9.635h81.283c6.3.006,11.413,4.316,11.42,9.635V390.855C642,396.173,636.887,400.483,630.583,400.489ZM549.3,279.3c-5.563.005-10.07,3.808-10.076,8.5V390.855c.006,4.693,4.514,8.5,10.076,8.5h81.283c5.563-.005,10.07-3.808,10.077-8.5V287.8c-.006-4.693-4.514-8.5-10.077-8.5Z" transform="translate(-505.66 -247.37)"/></g><path class="d" d="M615.84,396.152H575.826a4.535,4.535,0,0,1,0-9.068H615.84a4.535,4.535,0,0,1,0,9.068Z" transform="translate(-545.232 -315.06)"/><path class="d" d="M615.84,426.152H575.826a4.535,4.535,0,0,1,0-9.068H615.84a4.535,4.535,0,0,1,0,9.068Z" transform="translate(-545.232 -328.058)"/><path class="d" d="M615.84,456.152H575.826a4.535,4.535,0,0,1,0-9.068H615.84a4.535,4.535,0,0,1,0,9.068Z" transform="translate(-545.232 -341.056)"/><g class="m" transform="matrix(1, 0, 0, 1, -32.22, -20.5)"><ellipse class="a" cx="12.782" cy="13.035" rx="12.782" ry="13.035" transform="translate(118 20.5)"/></g><path class="c" d="M677.132,284.2a1.309,1.309,0,0,1-.8-.27l-.014-.011-3-2.345a1.379,1.379,0,0,1-.248-1.908,1.317,1.317,0,0,1,1.871-.253l1.946,1.521,4.6-6.115a1.317,1.317,0,0,1,1.871-.252l-.029.04.029-.039a1.381,1.381,0,0,1,.247,1.908l-5.408,7.193A1.326,1.326,0,0,1,677.132,284.2Z" transform="translate(-579.833 -266.188)"/><g transform="translate(24.458 30)"><g class="l" transform="matrix(1, 0, 0, 1, -56.68, -50.5)"><path d="M58.116,32.046c0,2.321-3.24,4.2-7.238,4.2H13.238c-4,0-7.238-1.88-7.238-4.2V10.2C6,7.88,9.241,6,13.238,6H50.877c4,0,7.238,1.88,7.238,4.2Z" transform="translate(50.68 44.5)"/></g><path class="e" d="M30.619,12H26V31.9a31.072,31.072,0,0,1,4.619.423C30.632,32.312,30.619,12,30.619,12Z" transform="translate(1.637 -7.038)"/><path class="e" d="M17,12h4.619V31.9A31.072,31.072,0,0,0,17,32.322C16.987,32.312,17,12,17,12Z" transform="translate(2.861 -7.038)"/><path class="f" d="M21.619,12H17l8.314,19.9a31.072,31.072,0,0,1,4.619.423C29.945,32.312,21.619,12,21.619,12Z" transform="translate(2.592 -7.038)"/></g></g><g class="k" transform="matrix(1, 0, 0, 1, -20.5, -97.08)"><ellipse class="a" cx="10.477" cy="10.684" rx="10.477" ry="10.684" transform="translate(163.34 110.49)"/></g><g transform="translate(139.393 13.424)"><circle class="g" cx="10.373" cy="10.373" r="10.373"/><g transform="translate(3.155 5.332)"><path class="h" d="M15.109,17.16h0a.789.789,0,0,1-.441-.148C12.1,15.463,9.107,15.4,6.153,16a2.63,2.63,0,0,1-.49.107.642.642,0,0,1-.651-.651.652.652,0,0,1,.561-.692c3.374-.745,6.822-.679,9.762,1.079a.7.7,0,0,1,.4.679A.623.623,0,0,1,15.109,17.16Z" transform="translate(-3.9 -7.46)"/><path class="h" d="M16.145,13.874h0a1.021,1.021,0,0,1-.507-.173,13.349,13.349,0,0,0-9.829-1.211,1.692,1.692,0,0,1-.49.107.8.8,0,0,1-.8-.8.811.811,0,0,1,.639-.852,13.833,13.833,0,0,1,4.029-.561,14.42,14.42,0,0,1,7.292,1.875.859.859,0,0,1,.466.811A.8.8,0,0,1,16.145,13.874Z" transform="translate(-3.827 -6.876)"/><path class="h" d="M4.423,6.889a17.248,17.248,0,0,1,4.841-.626,17.394,17.394,0,0,1,8.461,1.969.966.966,0,0,1,.531.931.954.954,0,0,1-.955.959h0a.948.948,0,0,1-.532-.161C13.836,8.21,8.591,7.79,5.2,8.738a1.983,1.983,0,0,1-.532.106.951.951,0,0,1-.959-.972.973.973,0,0,1,.717-.983Z" transform="translate(-3.706 -6.263)"/></g></g><g transform="translate(-12.498 -142.576)"><g class="j" transform="matrix(1, 0, 0, 1, -8, 45.5)"><ellipse class="a" cx="10.477" cy="10.684" rx="10.477" ry="10.684" transform="translate(219.24 178.26)"/></g><path class="i" d="M13.123,3A10.117,10.117,0,0,0,10.67,22.933a1.477,1.477,0,0,1-.078-.492v-1.73H9.32a1.761,1.761,0,0,1-1.607-.851c-.332-.615-.389-1.556-1.21-2.131-.244-.191-.058-.41.223-.38A2.653,2.653,0,0,1,8.079,18.38a1.3,1.3,0,0,0,1.346.649,9.672,9.672,0,0,0,1.426-.1,3.175,3.175,0,0,1,1.34-1.655c-3.371-.347-4.979-2.024-4.979-4.3a4.137,4.137,0,0,1,1.127-2.727c-.233-.793-.526-2.41.089-3.026a3.523,3.523,0,0,1,2.654,1.249,7.654,7.654,0,0,1,4.923,0A3.521,3.521,0,0,1,18.66,7.218c.617.617.321,2.24.086,3.032a4.136,4.136,0,0,1,1.12,2.721c0,2.275-1.606,3.951-4.972,4.3a3.551,3.551,0,0,1,1.6,2.865v2.306a1.484,1.484,0,0,1-.03.226A10.117,10.117,0,0,0,13.123,3Z" transform="translate(205.227 220.189)"/></g></g></svg>